# Made in Blockbench 4.9.4
mtllib Cooler.mtl

o cylinder
v -3.469446951953614e-18 1.0625 -3.469446951953614e-18
v -3.469446951953614e-18 1.890625 -3.469446951953614e-18
v 0.11722777168861614 1.0625 0.4375
v 0.11722777168861614 1.890625 0.4375
v 0.3202722283113838 1.0625 0.3202722283113838
v 0.3202722283113838 1.890625 0.3202722283113838
v 0.4375 1.0625 0.11722777168861614
v 0.4375 1.890625 0.11722777168861614
v 0.4375 1.0625 -0.1172277716886162
v 0.4375 1.890625 -0.1172277716886162
v 0.3202722283113838 1.0625 -0.3202722283113838
v 0.3202722283113838 1.890625 -0.3202722283113838
v 0.1172277716886163 1.0625 -0.4374999999999999
v 0.1172277716886163 1.890625 -0.4374999999999999
v -0.11722777168861599 1.0625 -0.4375
v -0.11722777168861599 1.890625 -0.4375
v -0.3202722283113838 1.0625 -0.3202722283113839
v -0.3202722283113838 1.890625 -0.3202722283113839
v -0.4374999999999999 1.0625 -0.11722777168861612
v -0.4374999999999999 1.890625 -0.11722777168861612
v -0.4375 1.0625 0.11722777168861595
v -0.4375 1.890625 0.11722777168861595
v -0.3202722283113839 1.0625 0.3202722283113838
v -0.3202722283113839 1.890625 0.3202722283113838
v -0.11722777168861613 1.0625 0.4375
v -0.11722777168861613 1.890625 0.4375
vt 0.329096875 0.7665968750000001
vt 0.303715625 0.78125
vt 0.2890625 0.7265625
vt 0.405278125 0.779296875
vt 0.434584375 0.779296875
vt 0.434584375 0.8828125
vt 0.405278125 0.8828125
vt 0.202153125 0.5859375
vt 0.227534375 0.6005906249999999
vt 0.1875 0.640625
vt 0.34375 0.7412156249999999
vt 0.329096875 0.7665968750000001
vt 0.2890625 0.7265625
vt 0.331040625 0.568359375
vt 0.360346875 0.568359375
vt 0.360346875 0.671875
vt 0.331040625 0.671875
vt 0.227534375 0.6005906249999999
vt 0.2421875 0.6259718750000001
vt 0.1875 0.640625
vt 0.34375 0.7119093750000001
vt 0.34375 0.7412156249999999
vt 0.2890625 0.7265625
vt 0.360346875 0.568359375
vt 0.389653125 0.568359375
vt 0.389653125 0.671875
vt 0.360346875 0.671875
vt 0.2421875 0.6259718750000001
vt 0.2421875 0.6552781249999999
vt 0.1875 0.640625
vt 0.329096875 0.6865281249999999
vt 0.34375 0.7119093750000001
vt 0.2890625 0.7265625
vt 0.389653125 0.568359375
vt 0.418959375 0.568359375
vt 0.418959375 0.671875
vt 0.389653125 0.671875
vt 0.2421875 0.6552781249999999
vt 0.227534375 0.6806593750000001
vt 0.1875 0.640625
vt 0.303715625 0.671875
vt 0.329096875 0.6865281249999999
vt 0.2890625 0.7265625
vt 0.002915625000000005 0.529296875
vt 0.032221875 0.529296875
vt 0.032221875 0.6328125
vt 0.002915625000000005 0.6328125
vt 0.227534375 0.6806593750000001
vt 0.202153125 0.6953125
vt 0.1875 0.640625
vt 0.274409375 0.671875
vt 0.303715625 0.671875
vt 0.2890625 0.7265625
vt 0.032221875 0.529296875
vt 0.061528125 0.529296875
vt 0.061528125 0.6328125
vt 0.032221875 0.6328125
vt 0.202153125 0.6953125
vt 0.172846875 0.6953125
vt 0.1875 0.640625
vt 0.249028125 0.6865281249999999
vt 0.274409375 0.671875
vt 0.2890625 0.7265625
vt 0.061528125 0.529296875
vt 0.090834375 0.529296875
vt 0.090834375 0.6328125
vt 0.061528125 0.6328125
vt 0.172846875 0.6953125
vt 0.147465625 0.6806593750000001
vt 0.1875 0.640625
vt 0.234375 0.7119093750000001
vt 0.249028125 0.6865281249999999
vt 0.2890625 0.7265625
vt 0.354478125 0.896484375
vt 0.383784375 0.896484375
vt 0.383784375 1
vt 0.354478125 1
vt 0.147465625 0.6806593750000001
vt 0.1328125 0.6552781249999999
vt 0.1875 0.640625
vt 0.234375 0.7412156249999999
vt 0.234375 0.7119093750000001
vt 0.2890625 0.7265625
vt 0.383784375 0.896484375
vt 0.413090625 0.896484375
vt 0.413090625 1
vt 0.383784375 1
vt 0.1328125 0.6552781249999999
vt 0.1328125 0.6259718750000001
vt 0.1875 0.640625
vt 0.249028125 0.7665968750000001
vt 0.234375 0.7412156249999999
vt 0.2890625 0.7265625
vt 0.413090625 0.896484375
vt 0.442396875 0.896484375
vt 0.442396875 1
vt 0.413090625 1
vt 0.1328125 0.6259718750000001
vt 0.147465625 0.6005906249999999
vt 0.1875 0.640625
vt 0.274409375 0.78125
vt 0.249028125 0.7665968750000001
vt 0.2890625 0.7265625
vt 0.346665625 0.779296875
vt 0.375971875 0.779296875
vt 0.375971875 0.8828125
vt 0.346665625 0.8828125
vt 0.147465625 0.6005906249999999
vt 0.172846875 0.5859375
vt 0.1875 0.640625
vt 0.303715625 0.78125
vt 0.274409375 0.78125
vt 0.2890625 0.7265625
vt 0.375971875 0.779296875
vt 0.405278125 0.779296875
vt 0.405278125 0.8828125
vt 0.375971875 0.8828125
vt 0.172846875 0.5859375
vt 0.202153125 0.5859375
vt 0.1875 0.640625
vn 0 -1 0
vn 0.5000000000000001 0 0.8660254037844388
vn 0 1 0
vn 0 -1 0
vn 0.8660254037844388 0 0.5000000000000001
vn 0 1 0
vn 0 -1 0
vn 1 0 0
vn 0 1 0
vn 0 -1 0
vn 0.8660254037844386 0 -0.5000000000000001
vn 0 1 0
vn 0 -1 0
vn 0.49999999999999994 0 -0.8660254037844387
vn 0 1 0
vn 0 -1 0
vn 4.735324269295861e-16 0 -1
vn 0 1 0
vn 0 -1 0
vn -0.49999999999999933 0 -0.8660254037844392
vn 0 1 0
vn 0 -1 0
vn -0.8660254037844392 0 -0.49999999999999944
vn 0 1 0
vn 0 -1 0
vn -1 0 -4.735324269295866e-16
vn 0 1 0
vn 0 -1 0
vn -0.8660254037844393 0 0.49999999999999933
vn 0 1 0
vn 0 -1 0
vn -0.4999999999999999 0 0.8660254037844389
vn 0 1 0
vn 0 -1 0
vn 0 0 1
vn 0 1 0
usemtl m_da9417b9-1a6b-6b78-8362-61860dc7c493
f 5/1/1 3/2/1 1/3/1
f 3/4/2 5/5/2 6/6/2 4/7/2
f 4/8/3 6/9/3 2/10/3
f 7/11/4 5/12/4 1/13/4
f 5/14/5 7/15/5 8/16/5 6/17/5
f 6/18/6 8/19/6 2/20/6
f 9/21/7 7/22/7 1/23/7
f 7/24/8 9/25/8 10/26/8 8/27/8
f 8/28/9 10/29/9 2/30/9
f 11/31/10 9/32/10 1/33/10
f 9/34/11 11/35/11 12/36/11 10/37/11
f 10/38/12 12/39/12 2/40/12
f 13/41/13 11/42/13 1/43/13
f 11/44/14 13/45/14 14/46/14 12/47/14
f 12/48/15 14/49/15 2/50/15
f 15/51/16 13/52/16 1/53/16
f 13/54/17 15/55/17 16/56/17 14/57/17
f 14/58/18 16/59/18 2/60/18
f 17/61/19 15/62/19 1/63/19
f 15/64/20 17/65/20 18/66/20 16/67/20
f 16/68/21 18/69/21 2/70/21
f 19/71/22 17/72/22 1/73/22
f 17/74/23 19/75/23 20/76/23 18/77/23
f 18/78/24 20/79/24 2/80/24
f 21/81/25 19/82/25 1/83/25
f 19/84/26 21/85/26 22/86/26 20/87/26
f 20/88/27 22/89/27 2/90/27
f 23/91/28 21/92/28 1/93/28
f 21/94/29 23/95/29 24/96/29 22/97/29
f 22/98/30 24/99/30 2/100/30
f 25/101/31 23/102/31 1/103/31
f 23/104/32 25/105/32 26/106/32 24/107/32
f 24/108/33 26/109/33 2/110/33
f 3/111/34 25/112/34 1/113/34
f 25/114/35 3/115/35 4/116/35 26/117/35
f 26/118/36 4/119/36 2/120/36
o cylinder
v 1.734723475976807e-18 1.890625 1.734723475976807e-18
v 1.734723475976807e-18 2.046875 1.734723475976807e-18
v 0.1423480084790339 1.890625 0.53125
v 0.1423480084790339 2.0078125 0.53125
v 0.38890199152096594 1.890625 0.38890199152096605
v 0.38890199152096594 2.0078125 0.38890199152096605
v 0.53125 1.890625 0.1423480084790339
v 0.53125 2.0078125 0.1423480084790339
v 0.53125 1.890625 -0.14234800847903395
v 0.53125 2.0078125 -0.14234800847903395
v 0.38890199152096605 1.890625 -0.38890199152096605
v 0.38890199152096605 2.0078125 -0.38890199152096605
v 0.1423480084790341 1.890625 -0.5312499999999999
v 0.1423480084790341 2.0078125 -0.5312499999999999
v -0.1423480084790337 1.890625 -0.53125
v -0.1423480084790337 2.0078125 -0.53125
v -0.38890199152096605 1.890625 -0.38890199152096616
v -0.38890199152096605 2.0078125 -0.38890199152096616
v -0.5312499999999999 1.890625 -0.14234800847903384
v -0.5312499999999999 2.0078125 -0.14234800847903384
v -0.53125 1.890625 0.14234800847903367
v -0.53125 2.0078125 0.14234800847903367
v -0.38890199152096616 1.890625 0.38890199152096594
v -0.38890199152096616 2.0078125 0.38890199152096594
v -0.14234800847903387 1.890625 0.53125
v -0.14234800847903387 2.0078125 0.53125
vt 0.22439375 0.86501875
vt 0.193575 0.8828125
vt 0.17578125 0.81640625
vt 0.51779375 0.8291015625
vt 0.55338125 0.8291015625
vt 0.55338125 0.84375
vt 0.51779375 0.84375
vt 0.08810625 0.8666891208637733
vt 0.11894968645959196 0.8844416582489787
vt 0.0703125 0.9332742771137733
vt 0.2421875 0.8342
vt 0.22439375 0.86501875
vt 0.17578125 0.81640625
vt 0.44661875 0.8525390625
vt 0.48220625 0.8525390625
vt 0.48220625 0.8671875
vt 0.44661875 0.8671875
vt 0.11894968645959197 0.8844416582489787
vt 0.13682576623546194 0.9152136573406323
vt 0.07031249999999999 0.9332742771137733
vt 0.2421875 0.7986125
vt 0.2421875 0.8342
vt 0.17578125 0.81640625
vt 0.48220625 0.8525390625
vt 0.51779375 0.8525390625
vt 0.51779375 0.8671875
vt 0.48220625 0.8671875
vt 0.13682576623546194 0.9152136573406323
vt 0.13696847551320152 0.9508008712005573
vt 0.0703125 0.9332742771137733
vt 0.22439375 0.76779375
vt 0.2421875 0.7986125
vt 0.17578125 0.81640625
vt 0.51779375 0.8525390625
vt 0.55338125 0.8525390625
vt 0.55338125 0.8671875
vt 0.51779375 0.8671875
vt 0.13696847551320152 0.9508008712005573
vt 0.11933976599599842 0.9817152490368988
vt 0.0703125 0.9332742771137733
vt 0.193575 0.75
vt 0.22439375 0.76779375
vt 0.17578125 0.81640625
vt 0.44661875 0.7822265625
vt 0.48220625 0.7822265625
vt 0.48220625 0.796875
vt 0.44661875 0.796875
vt 0.11933976599599842 0.9817152490368988
vt 0.08863969911469262 0.999714583739419
vt 0.07031249999999999 0.9332742771137733
vt 0.1579875 0.75
vt 0.193575 0.75
vt 0.17578125 0.81640625
vt 0.48220625 0.7822265625
vt 0.51779375 0.7822265625
vt 0.51779375 0.796875
vt 0.48220625 0.796875
vt 0.08757165632960928 1
vt 0.05198530088530738 0.999714583739419
vt 0.07031250000000003 0.9332742771137732
vt 0.12716875 0.76779375
vt 0.1579875 0.75
vt 0.17578125 0.81640625
vt 0.51779375 0.7822265625
vt 0.55338125 0.7822265625
vt 0.55338125 0.796875
vt 0.51779375 0.796875
vt 0.05198530088530738 0.999714583739419
vt 0.021285234004001577 0.9817152490368988
vt 0.07031250000000001 0.9332742771137733
vt 0.109375 0.7986125
vt 0.12716875 0.76779375
vt 0.17578125 0.81640625
vt 0.44661875 0.8056640625
vt 0.48220625 0.8056640625
vt 0.48220625 0.8203125
vt 0.44661875 0.8203125
vt 0.021285234004001577 0.9817152490368988
vt 0.0036565244867984986 0.9508008712005573
vt 0.0703125 0.9332742771137733
vt 0.109375 0.8342
vt 0.109375 0.7986125
vt 0.17578125 0.81640625
vt 0.48220625 0.8056640625
vt 0.51779375 0.8056640625
vt 0.51779375 0.8203125
vt 0.48220625 0.8203125
vt 0.0036565244867984986 0.9508008712005573
vt 0.003799233764538057 0.9152136573406323
vt 0.0703125 0.9332742771137733
vt 0.12716875 0.86501875
vt 0.109375 0.8342
vt 0.17578125 0.81640625
vt 0.51779375 0.8056640625
vt 0.55338125 0.8056640625
vt 0.55338125 0.8203125
vt 0.51779375 0.8203125
vt 0.003799233764538057 0.9152136573406323
vt 0.021675313540408025 0.8844416582489787
vt 0.07031250000000001 0.9332742771137733
vt 0.1579875 0.8828125
vt 0.12716875 0.86501875
vt 0.17578125 0.81640625
vt 0.44661875 0.8291015625
vt 0.48220625 0.8291015625
vt 0.48220625 0.84375
vt 0.44661875 0.84375
vt 0.021675313540408032 0.8844416582489787
vt 0.05251875 0.8666891208637733
vt 0.0703125 0.9332742771137733
vt 0.193575 0.8828125
vt 0.1579875 0.8828125
vt 0.17578125 0.81640625
vt 0.48220625 0.8291015625
vt 0.51779375 0.8291015625
vt 0.51779375 0.84375
vt 0.48220625 0.84375
vt 0.05251875 0.8666891208637733
vt 0.08810625 0.8666891208637733
vt 0.0703125 0.9332742771137733
vn 0 -1 0
vn 0.5000000000000001 0 0.8660254037844386
vn 0.03666572151802709 0.9973076252903365 0.06350689256539437
vn 0 -1 0
vn 0.8660254037844385 0 0.5000000000000003
vn 0.06350689256539435 0.9973076252903365 0.0366657215180271
vn 0 -1 0
vn 1 0 0
vn 0.07333144303605414 0.9973076252903365 0
vn 0 -1 0
vn 0.8660254037844388 0 -0.5000000000000001
vn 0.06350689256539435 0.9973076252903365 -0.03666572151802708
vn 0 -1 0
vn 0.5000000000000001 0 -0.8660254037844388
vn 0.03666572151802708 0.9973076252903365 -0.06350689256539437
vn 0 -1 0
vn 3.899678810008356e-16 0 -1
vn 2.859690745150352e-17 0.9973076252903365 -0.07333144303605416
vn 0 -1 0
vn -0.4999999999999995 0 -0.8660254037844392
vn -0.03666572151802703 0.9973076252903365 -0.0635068925653944
vn 0 -1 0
vn -0.8660254037844389 0 -0.4999999999999995
vn -0.0635068925653944 0.9973076252903365 -0.036665721518027036
vn 0 -1 0
vn -1 0 -3.8996788100083596e-16
vn -0.07333144303605416 0.9973076252903365 -2.859690745150355e-17
vn 0 -1 0
vn -0.8660254037844389 0 0.4999999999999996
vn -0.0635068925653944 0.9973076252903365 0.03666572151802704
vn 0 -1 0
vn -0.5000000000000001 0 0.8660254037844387
vn -0.03666572151802708 0.9973076252903365 0.06350689256539435
vn 0 -1 0
vn 0 0 1
vn 0 0.9973076252903365 0.07333144303605414
usemtl m_da9417b9-1a6b-6b78-8362-61860dc7c493
f 31/121/37 29/122/37 27/123/37
f 29/124/38 31/125/38 32/126/38 30/127/38
f 30/128/39 32/129/39 28/130/39
f 33/131/40 31/132/40 27/133/40
f 31/134/41 33/135/41 34/136/41 32/137/41
f 32/138/42 34/139/42 28/140/42
f 35/141/43 33/142/43 27/143/43
f 33/144/44 35/145/44 36/146/44 34/147/44
f 34/148/45 36/149/45 28/150/45
f 37/151/46 35/152/46 27/153/46
f 35/154/47 37/155/47 38/156/47 36/157/47
f 36/158/48 38/159/48 28/160/48
f 39/161/49 37/162/49 27/163/49
f 37/164/50 39/165/50 40/166/50 38/167/50
f 38/168/51 40/169/51 28/170/51
f 41/171/52 39/172/52 27/173/52
f 39/174/53 41/175/53 42/176/53 40/177/53
f 40/178/54 42/179/54 28/180/54
f 43/181/55 41/182/55 27/183/55
f 41/184/56 43/185/56 44/186/56 42/187/56
f 42/188/57 44/189/57 28/190/57
f 45/191/58 43/192/58 27/193/58
f 43/194/59 45/195/59 46/196/59 44/197/59
f 44/198/60 46/199/60 28/200/60
f 47/201/61 45/202/61 27/203/61
f 45/204/62 47/205/62 48/206/62 46/207/62
f 46/208/63 48/209/63 28/210/63
f 49/211/64 47/212/64 27/213/64
f 47/214/65 49/215/65 50/216/65 48/217/65
f 48/218/66 50/219/66 28/220/66
f 51/221/67 49/222/67 27/223/67
f 49/224/68 51/225/68 52/226/68 50/227/68
f 50/228/69 52/229/69 28/230/69
f 29/231/70 51/232/70 27/233/70
f 51/234/71 29/235/71 30/236/71 52/237/71
f 52/238/72 30/239/72 28/240/72
o cuboid
v -0.25 0 -0.25
v 0.4375 1 0.328125
v 0.4375 1 -0.328125
v 0.4375 0 0.328125
v 0.4375 0 -0.328125
v -0.4375 1 0.328125
v -0.4375 1 -0.328125
v -0.4375 0 0.328125
v -0.4375 0 -0.328125
v 0.25 1 0.5
v 0.25 0 0.5
v 0 1 0.5
v 0 0 0.5
v -0.25 1 0.5
v -0.25 0 0.5
v 0.25 0 -0.5
v 0 0 -0.5
v -0.25 0 -0.5
v 0.25 1 -0.5
v 0 1 -0.5
v -0.25 1 -0.5
v 0.5 1 -0.25
v 0.5 0 -0.25
v 0.5 1 0
v 0.5 0 0
v 0.5 1 0.25
v 0.5 0 0.25
v 0.25 0 -0.25
v 0.25 0 0
v 0.25 0 0.25
v 0 0 -0.25
v 0 0 0
v 0 0 0.25
v -0.25 0 0
v -0.25 0 0.25
v -0.5 0 -0.25
v -0.5 0 0
v -0.5 0 0.25
v -0.5 1 -0.25
v -0.5 1 0
v -0.5 1 0.25
v -0.25 1 -0.25
v -0.25 1 0
v -0.25 1 0.25
v 0 1 -0.25
v 0 1 0.25
v 0.25 1 -0.25
v 0.25 1 0
v 0.25 1 0.25
v 0 1.0625 -0.25
v 0 1.0625 0
v 0.25 1.0625 0
v 0.25 1.0625 -0.25
v 0 1.0625 0.25
v 0.25 1.0625 0.25
v -0.25 1.0625 0
v -0.25 1.0625 0.25
v -0.25 1.0625 -0.25
vt 0.40936875 0.4296875
vt 0.421875 0.4296875
vt 0.421875 0.5546875
vt 0.40936875 0.5546875
vt 0.44219375 0.6328125
vt 0.4296875 0.6328125
vt 0.4296875 0.5078125
vt 0.44219375 0.5078125
vt 0.25 0.875
vt 0.25 0.90625
vt 0.21875 0.90625
vt 0.2265625 0.896484375
vt 0.0078125 0.744140625
vt 0 0.734375
vt 0.03125 0.734375
vt 0.03125 0.765625
vt 0.44219375000000005 0.5078125
vt 0.47398828125000003 0.5078125
vt 0.47398828125000003 0.6328125
vt 0.44219375 0.6328125
vt 0.48749375 1
vt 0.45569921874999997 1
vt 0.45569921874999997 0.875
vt 0.48749375 0.875
vt 0.40936875 0.5546875
vt 0.37757421874999997 0.5546875
vt 0.37757421874999997 0.4296875
vt 0.40936875 0.4296875
vt 0.3125 0.6640625
vt 0.28125 0.6640625
vt 0.28125 0.5390625
vt 0.3125 0.5390625
vt 0.28125 0.6640625
vt 0.25 0.6640625
vt 0.25 0.5390625
vt 0.28125 0.5390625
vt 0.09375 0.765625
vt 0.09375 0.734375
vt 0.125 0.734375
vt 0.1171875 0.744140625
vt 0.0625 0.765625
vt 0.0625 0.734375
vt 0.09375 0.734375
vt 0.09375 0.765625
vt 0.03125 0.765625
vt 0.03125 0.734375
vt 0.0625 0.734375
vt 0.0625 0.765625
vt 0.33281875000000005 0.4296875
vt 0.36461328125000003 0.4296875
vt 0.36461328125000003 0.5546875
vt 0.33281875 0.5546875
vt 0.1015625 0.453125
vt 0.1328125 0.453125
vt 0.1328125 0.578125
vt 0.1015625 0.578125
vt 0.1328125 0.453125
vt 0.1640625 0.453125
vt 0.1640625 0.578125
vt 0.1328125 0.578125
vt 0.3359375 0.896484375
vt 0.34375 0.90625
vt 0.3125 0.90625
vt 0.3125 0.875
vt 0.3125 0.875
vt 0.3125 0.90625
vt 0.28125 0.90625
vt 0.28125 0.875
vt 0.28125 0.875
vt 0.28125 0.90625
vt 0.25 0.90625
vt 0.25 0.875
vt 0.33281875 0.5546875
vt 0.3203125 0.5546875
vt 0.3203125 0.4296875
vt 0.33281875 0.4296875
vt 0.234375 0.578125
vt 0.203125 0.578125
vt 0.203125 0.453125
vt 0.234375 0.453125
vt 0.203125 0.578125
vt 0.171875 0.578125
vt 0.171875 0.453125
vt 0.203125 0.453125
vt 0.1171875 0.662109375
vt 0.125 0.671875
vt 0.09375 0.671875
vt 0.09375 0.640625
vt 0.125 0.671875
vt 0.125 0.703125
vt 0.09375 0.703125
vt 0.09375 0.671875
vt 0.125 0.703125
vt 0.125 0.734375
vt 0.09375 0.734375
vt 0.09375 0.703125
vt 0.09375 0.640625
vt 0.09375 0.671875
vt 0.0625 0.671875
vt 0.0625 0.640625
vt 0.09375 0.671875
vt 0.09375 0.703125
vt 0.0625 0.703125
vt 0.0625 0.671875
vt 0.09375 0.703125
vt 0.09375 0.734375
vt 0.0625 0.734375
vt 0.0625 0.703125
vt 0.0625 0.640625
vt 0.0625 0.671875
vt 0.03125 0.671875
vt 0.03125 0.640625
vt 0.0625 0.671875
vt 0.0625 0.703125
vt 0.03125 0.703125
vt 0.03125 0.671875
vt 0.0625 0.703125
vt 0.0625 0.734375
vt 0.03125 0.734375
vt 0.03125 0.703125
vt 0.03125 0.640625
vt 0.03125 0.671875
vt 0 0.671875
vt 0.0078125 0.662109375
vt 0.03125 0.671875
vt 0.03125 0.703125
vt 0 0.703125
vt 0 0.671875
vt 0.03125 0.703125
vt 0.03125 0.734375
vt 0 0.734375
vt 0 0.703125
vt 0.48749375 0.875
vt 0.5 0.875
vt 0.5 1
vt 0.48749375 1
vt 0.4296875 0.640625
vt 0.4609375 0.640625
vt 0.4609375 0.765625
vt 0.4296875 0.765625
vt 0.4609375 0.640625
vt 0.4921875 0.640625
vt 0.4921875 0.765625
vt 0.4609375 0.765625
vt 0.2265625 0.978515625
vt 0.21875 0.96875
vt 0.25 0.96875
vt 0.25 1
vt 0.21875 0.96875
vt 0.21875 0.9375
vt 0.25 0.9375
vt 0.25 0.96875
vt 0.21875 0.9375
vt 0.21875 0.90625
vt 0.25 0.90625
vt 0.25 0.9375
vt 0.25 1
vt 0.25 0.96875
vt 0.28125 0.96875
vt 0.28125 1
vt 0 0.8515625
vt 0 0.8203125
vt 0.03125 0.8203125
vt 0.03125 0.8515625
vt 0 0.8203125
vt 0 0.7890625
vt 0.03125 0.7890625
vt 0.03125 0.8203125
vt 0.28125 1
vt 0.28125 0.96875
vt 0.3125 0.96875
vt 0.3125 1
vt 0.03125 0.8515625
vt 0.03125 0.8203125
vt 0.0625 0.8203125
vt 0.0625 0.8515625
vt 0.03125 0.8203125
vt 0.03125 0.7890625
vt 0.0625 0.7890625
vt 0.0625 0.8203125
vt 0.3125 1
vt 0.3125 0.96875
vt 0.34375 0.96875
vt 0.3359375 0.978515625
vt 0.3125 0.96875
vt 0.3125 0.9375
vt 0.34375 0.9375
vt 0.34375 0.96875
vt 0.3125 0.9375
vt 0.3125 0.90625
vt 0.34375 0.90625
vt 0.34375 0.9375
vt 0.1875 1
vt 0.15625 1
vt 0.15625 0.9921875
vt 0.1875 0.9921875
vt 0.171875 0.984375
vt 0.140625 0.984375
vt 0.140625 0.9765625
vt 0.171875 0.9765625
vt 0.203125 0.8984375
vt 0.171875 0.8984375
vt 0.171875 0.890625
vt 0.203125 0.890625
vt 0.15625 1
vt 0.125 1
vt 0.125 0.9921875
vt 0.15625 0.9921875
vt 0.2109375 0.96875
vt 0.1796875 0.96875
vt 0.1796875 0.9609375
vt 0.2109375 0.9609375
vt 0.171875 0.8984375
vt 0.140625 0.8984375
vt 0.140625 0.890625
vt 0.171875 0.890625
vt 0.1796875 0.96875
vt 0.1484375 0.96875
vt 0.1484375 0.9609375
vt 0.1796875 0.9609375
vt 0.203125 0.984375
vt 0.171875 0.984375
vt 0.171875 0.9765625
vt 0.203125 0.9765625
vn 0.7808688094430304 0 0.6246950475544243
vn -0.7808688094430304 0 0.6246950475544243
vn 0 1 0
vn 0 -1 0
vn -0.6757246285173463 0 0.7371541402007414
vn -0.6757246285173463 0 -0.7371541402007414
vn 0.6757246285173463 0 0.7371541402007414
vn 0 0 1
vn 0 0 1
vn 0 -1 0
vn 0 -1 0
vn 0 -1 0
vn 0.6757246285173463 0 -0.7371541402007414
vn 0 0 -1
vn 0 0 -1
vn 0 1 0
vn 0 1 0
vn 0 1 0
vn 0.7808688094430304 0 -0.6246950475544243
vn 1 0 0
vn 1 0 0
vn 0 -1 0
vn 0 -1 0
vn 0 -1 0
vn 0 -1 0
vn 0 -1 0
vn 0 -1 0
vn 0 -1 0
vn 0 -1 0
vn 0 -1 0
vn 0 -1 0
vn 0 -1 0
vn 0 -1 0
vn -0.7808688094430304 0 -0.6246950475544243
vn -1 0 0
vn -1 0 0
vn 0 1 0
vn 0 1 0
vn 0 1 0
vn 0 1 0
vn 0 1 0
vn 0 1 0
vn 0 1 0
vn 0 1 0
vn 0 1 0
vn 0 1 0
vn 0 1 0
vn 0 1 0
vn 1 0 0
vn 0 0 -1
vn 0 0 1
vn 1 0 0
vn -1 0 0
vn 0 0 1
vn -1 0 0
vn 0 0 -1
usemtl m_da9417b9-1a6b-6b78-8362-61860dc7c493
f 56/241/73 79/242/73 78/243/73 54/244/73
f 58/245/74 93/246/74 90/247/74 60/248/74
f 66/249/75 96/250/75 93/251/75 58/252/75
f 60/253/76 90/254/76 87/255/76 67/256/76
f 60/257/77 67/258/77 66/259/77 58/260/77
f 59/261/78 73/262/78 70/263/78 61/264/78
f 54/265/79 62/266/79 63/267/79 56/268/79
f 62/269/80 64/270/80 65/271/80 63/272/80
f 64/273/81 66/274/81 67/275/81 65/276/81
f 63/277/82 82/278/82 79/279/82 56/280/82
f 65/281/83 85/282/83 82/283/83 63/284/83
f 67/285/84 87/286/84 85/287/84 65/288/84
f 57/289/85 68/290/85 71/291/85 55/292/85
f 68/293/86 69/294/86 72/295/86 71/296/86
f 69/297/87 70/298/87 73/299/87 72/300/87
f 54/301/88 78/302/88 101/303/88 62/304/88
f 62/305/89 101/306/89 98/307/89 64/308/89
f 64/309/90 98/310/90 96/311/90 66/312/90
f 55/313/91 74/314/91 75/315/91 57/316/91
f 74/317/92 76/318/92 77/319/92 75/320/92
f 76/321/93 78/322/93 79/323/93 77/324/93
f 57/325/94 75/326/94 80/327/94 68/328/94
f 75/329/95 77/330/95 81/331/95 80/332/95
f 77/333/96 79/334/96 82/335/96 81/336/96
f 68/337/97 80/338/97 83/339/97 69/340/97
f 80/341/98 81/342/98 84/343/98 83/344/98
f 81/345/99 82/346/99 85/347/99 84/348/99
f 69/349/100 83/350/100 53/351/100 70/352/100
f 83/353/101 84/354/101 86/355/101 53/356/101
f 84/357/102 85/358/102 87/359/102 86/360/102
f 70/361/103 53/362/103 88/363/103 61/364/103
f 53/365/104 86/366/104 89/367/104 88/368/104
f 86/369/105 87/370/105 90/371/105 89/372/105
f 61/373/106 88/374/106 91/375/106 59/376/106
f 88/377/107 89/378/107 92/379/107 91/380/107
f 89/381/108 90/382/108 93/383/108 92/384/108
f 59/385/109 91/386/109 94/387/109 73/388/109
f 91/389/110 92/390/110 95/391/110 94/392/110
f 92/393/111 93/394/111 96/395/111 95/396/111
f 73/397/112 94/398/112 97/399/112 72/400/112
f 110/401/113 108/402/113 103/403/113 102/404/113
f 108/405/114 109/406/114 106/407/114 103/408/114
f 72/409/115 97/410/115 99/411/115 71/412/115
f 102/413/116 103/414/116 104/415/116 105/416/116
f 103/417/117 106/418/117 107/419/117 104/420/117
f 71/421/118 99/422/118 74/423/118 55/424/118
f 99/425/119 100/426/119 76/427/119 74/428/119
f 100/429/120 101/430/120 78/431/120 76/432/120
f 105/433/121 104/434/121 100/435/121 99/436/121
f 102/437/122 105/438/122 99/439/122 97/440/122
f 107/441/123 106/442/123 98/443/123 101/444/123
f 104/445/124 107/446/124 101/447/124 100/448/124
f 109/449/125 108/450/125 95/451/125 96/452/125
f 106/453/126 109/454/126 96/455/126 98/456/126
f 108/457/127 110/458/127 94/459/127 95/460/127
f 110/461/128 102/462/128 97/463/128 94/464/128