# Made in Blockbench 4.9.4
mtllib Trash_bin.mtl

o cuboid
v 0.453125 1.3125 0.328125
v 0.453125 1.3125 -0.328125
v 0.453125 0 0.328125
v 0.453125 0 -0.328125
v -0.453125 1.3125 0.328125
v -0.453125 1.3125 -0.328125
v -0.453125 0 0.328125
v -0.453125 0 -0.328125
v -0.25 1.3125 -0.5
v -0.25 0 -0.5
v 0 1.3125 -0.5
v 0 0 -0.5
v 0.25 1.3125 -0.5
v 0.25 0 -0.5
v -0.25 0 0.5
v 0 0 0.5
v 0.25 0 0.5
v -0.25 1.3125 0.5
v 0 1.3125 0.5
v 0.25 1.3125 0.5
v -0.5 1.3125 0.25
v -0.5 0 0.25
v -0.5 1.3125 0
v -0.5 0 0
v -0.5 1.3125 -0.25
v -0.5 0 -0.25
v -0.25 0 0.25
v -0.25 0 0
v -0.25 0 -0.25
v 0 0 0.25
v 0 0 0
v 0 0 -0.25
v 0.25 0 0.25
v 0.25 0 0
v 0.25 0 -0.25
v 0.5 0 0.25
v 0.5 0 0
v 0.5 0 -0.25
v 0.5 1.3125 0.25
v 0.5 1.3125 0
v 0.5 1.3125 -0.25
v 0.25 1.46875 0.25
v 0.25 1.46875 0
v 0.25 1.46875 -0.25
v 0 1.46875 0.25
v 0 1.46875 0
v 0 1.46875 -0.25
v -0.25 1.46875 0.25
v -0.25 1.46875 0
v -0.25 1.46875 -0.25
vt 0.6555890625 0.5
vt 0.6328125 0.5
vt 0.6328125 0.171875
vt 0.6555890625 0.171875
vt 0.0006609375000000001 0.375
vt 0.0234375 0.375
vt 0.0234375 0.703125
vt 0.0006609375000000001 0.703125
vt 0.22383012595495605 0.9970325002062753
vt 0.20312468319512897 0.926296875
vt 0.27682844180487104 0.926296875
vt 0.266891312834816 0.9464626180058261
vt 0.48828125 0.54296875
vt 0.5 0.5625
vt 0.4375 0.5625
vt 0.4375 0.5
vt 0.390625 0.484375
vt 0.328125 0.484375
vt 0.328125 0.15625
vt 0.390625 0.15625
vt 0.40625 0.15625
vt 0.46875 0.15625
vt 0.46875 0.484375
vt 0.40625 0.484375
vt 0.0625 0.359375
vt 0 0.359375
vt 0 0.03125
vt 0.0625 0.03125
vt 0.640625 1
vt 0.578125 1
vt 0.578125 0.671875
vt 0.640625 0.671875
vt 0.578125 1
vt 0.515625 1
vt 0.515625 0.671875
vt 0.578125 0.671875
vt 0.3125 0.5
vt 0.3125 0.5625
vt 0.25 0.5625
vt 0.26171875 0.54296875
vt 0.375 0.5
vt 0.375 0.5625
vt 0.3125 0.5625
vt 0.3125 0.5
vt 0.4375 0.5
vt 0.4375 0.5625
vt 0.375 0.5625
vt 0.375 0.5
vt 0.078125 0.03125
vt 0.140625 0.03125
vt 0.140625 0.359375
vt 0.078125 0.359375
vt 0.1875 0.15625
vt 0.25 0.15625
vt 0.25 0.484375
vt 0.1875 0.484375
vt 0.25 0.15625
vt 0.3125 0.15625
vt 0.3125 0.484375
vt 0.25 0.484375
vt 0.014359087304954388 0.9467913404608048
vt 0.004421850023280605 0.926296875
vt 0.07812531680487102 0.926296875
vt 0.05742303099657145 0.9958963932485947
vt 0.078125316804871 1
vt 0.078125316804871 0.926296875
vt 0.140625316804871 0.926296875
vt 0.140625316804871 1
vt 0.140625316804871 1
vt 0.140625316804871 0.926296875
vt 0.203125316804871 0.926296875
vt 0.203125316804871 1
vt 0.17121406249999999 0.703125
vt 0.1484375 0.703125
vt 0.1484375 0.375
vt 0.17121406249999999 0.375
vt 0.1484375 0.703125
vt 0.0859375 0.703125
vt 0.0859375 0.375
vt 0.1484375 0.375
vt 0.0859375 0.703125
vt 0.0234375 0.703125
vt 0.0234375 0.375
vt 0.0859375 0.375
vt 0.26171875 0.70703125
vt 0.25 0.6875
vt 0.3125 0.6875
vt 0.3125 0.75
vt 0.25 0.6875
vt 0.25 0.625
vt 0.3125 0.625
vt 0.3125 0.6875
vt 0.25 0.625
vt 0.25 0.5625
vt 0.3125 0.5625
vt 0.3125 0.625
vt 0.3125 0.75
vt 0.3125 0.6875
vt 0.375 0.6875
vt 0.375 0.75
vt 0.3125 0.6875
vt 0.3125 0.625
vt 0.375 0.625
vt 0.375 0.6875
vt 0.3125 0.625
vt 0.3125 0.5625
vt 0.375 0.5625
vt 0.375 0.625
vt 0.375 0.75
vt 0.375 0.6875
vt 0.4375 0.6875
vt 0.4375 0.75
vt 0.375 0.6875
vt 0.375 0.625
vt 0.4375 0.625
vt 0.4375 0.6875
vt 0.375 0.625
vt 0.375 0.5625
vt 0.4375 0.5625
vt 0.4375 0.625
vt 0.4375 0.75
vt 0.4375 0.6875
vt 0.5 0.6875
vt 0.48828125 0.70703125
vt 0.4375 0.6875
vt 0.4375 0.625
vt 0.5 0.625
vt 0.5 0.6875
vt 0.4375 0.625
vt 0.4375 0.5625
vt 0.5 0.5625
vt 0.5 0.625
vt 0.4850359375 0.171875
vt 0.5078125 0.171875
vt 0.5078125 0.5
vt 0.4850359375 0.5
vt 0.5078125 0.171875
vt 0.5703125 0.171875
vt 0.5703125 0.5
vt 0.5078125 0.5
vt 0.5703125 0.171875
vt 0.6328125 0.171875
vt 0.6328125 0.5
vt 0.5703125 0.5
vt 0.2668912045231972 0.7808024095391952
vt 0.27682844180487104 0.801296875
vt 0.20312497502328059 0.801296875
vt 0.22382726083158022 0.7316973567514052
vt 0.27682844180487104 0.801296875
vt 0.27682844180487104 0.863796875
vt 0.203125316804871 0.863796875
vt 0.203125316804871 0.801296875
vt 0.27682844180487104 0.863796875
vt 0.27682844180487104 0.926296875
vt 0.203125316804871 0.926296875
vt 0.203125316804871 0.863796875
vt 0.203125316804871 0.7275937499999999
vt 0.203125316804871 0.801296875
vt 0.140625316804871 0.801296875
vt 0.140625316804871 0.7275937499999999
vt 0.203125316804871 0.801296875
vt 0.203125316804871 0.863796875
vt 0.140625316804871 0.863796875
vt 0.140625316804871 0.801296875
vt 0.203125316804871 0.863796875
vt 0.203125316804871 0.926296875
vt 0.140625316804871 0.926296875
vt 0.140625316804871 0.863796875
vt 0.140625316804871 0.7275937499999999
vt 0.140625316804871 0.801296875
vt 0.078125316804871 0.801296875
vt 0.078125316804871 0.7275937499999999
vt 0.140625316804871 0.801296875
vt 0.140625316804871 0.863796875
vt 0.078125316804871 0.863796875
vt 0.078125316804871 0.801296875
vt 0.140625316804871 0.863796875
vt 0.140625316804871 0.926296875
vt 0.078125316804871 0.926296875
vt 0.078125316804871 0.863796875
vt 0.05741987404504391 0.7305612497937246
vt 0.07812531680487099 0.801296875
vt 0.004421558195128961 0.801296875
vt 0.014358687165184014 0.7811311319941739
vt 0.07812531680487099 0.801296875
vt 0.078125316804871 0.863796875
vt 0.004422191804870995 0.863796875
vt 0.004422191804870967 0.801296875
vt 0.078125316804871 0.863796875
vt 0.078125316804871 0.926296875
vt 0.004422191804871023 0.926296875
vt 0.004422191804870995 0.863796875
vn 0.8574929257125442 0 -0.5144957554275266
vn -0.8574929257125442 0 -0.5144957554275266
vn 0.468292905790847 0.7492686492653552 -0.468292905790847
vn 0 -1 0
vn 0.6459422414661738 0 0.7633862853691146
vn 0.6459422414661738 0 -0.7633862853691146
vn -0.6459422414661738 0 -0.7633862853691146
vn 0 0 -1
vn 0 0 -1
vn 0 -1 0
vn 0 -1 0
vn 0 -1 0
vn -0.6459422414661738 0 0.7633862853691146
vn 0 0 1
vn 0 0 1
vn -0.5050762722761054 0.8081220356417685 -0.3030457633656632
vn 0 0.847998304005088 -0.52999894000318
vn 0 0.847998304005088 -0.52999894000318
vn -0.8574929257125442 0 0.5144957554275266
vn -1 0 0
vn -1 0 0
vn 0 -1 0
vn 0 -1 0
vn 0 -1 0
vn 0 -1 0
vn 0 -1 0
vn 0 -1 0
vn 0 -1 0
vn 0 -1 0
vn 0 -1 0
vn 0 -1 0
vn 0 -1 0
vn 0 -1 0
vn 0.8574929257125442 0 0.5144957554275266
vn 1 0 0
vn 1 0 0
vn 0.5050762722761054 0.8081220356417685 0.3030457633656632
vn 0.52999894000318 0.847998304005088 0
vn 0.52999894000318 0.847998304005088 0
vn 0 0.847998304005088 0.52999894000318
vn 0 1 0
vn 0 1 0
vn 0 0.847998304005088 0.52999894000318
vn 0 1 0
vn 0 1 0
vn -0.468292905790847 0.7492686492653552 0.468292905790847
vn -0.52999894000318 0.847998304005088 0
vn -0.52999894000318 0.847998304005088 0
usemtl m_e9857c55-7777-b868-77b1-6d1e17dfeb23
f 2/1/1 41/2/1 38/3/1 4/4/1
f 8/5/2 26/6/2 25/7/2 6/8/2
f 13/9/3 44/10/3 41/11/3 2/12/3
f 4/13/4 38/14/4 35/15/4 14/16/4
f 1/17/5 20/18/5 17/19/5 3/20/5
f 4/21/6 14/22/6 13/23/6 2/24/6
f 6/25/7 9/26/7 10/27/7 8/28/7
f 9/29/8 11/30/8 12/31/8 10/32/8
f 11/33/9 13/34/9 14/35/9 12/36/9
f 10/37/10 29/38/10 26/39/10 8/40/10
f 12/41/11 32/42/11 29/43/11 10/44/11
f 14/45/12 35/46/12 32/47/12 12/48/12
f 7/49/13 15/50/13 18/51/13 5/52/13
f 15/53/14 16/54/14 19/55/14 18/56/14
f 16/57/15 17/58/15 20/59/15 19/60/15
f 6/61/16 25/62/16 50/63/16 9/64/16
f 9/65/17 50/66/17 47/67/17 11/68/17
f 11/69/18 47/70/18 44/71/18 13/72/18
f 5/73/19 21/74/19 22/75/19 7/76/19
f 21/77/20 23/78/20 24/79/20 22/80/20
f 23/81/21 25/82/21 26/83/21 24/84/21
f 7/85/22 22/86/22 27/87/22 15/88/22
f 22/89/23 24/90/23 28/91/23 27/92/23
f 24/93/24 26/94/24 29/95/24 28/96/24
f 15/97/25 27/98/25 30/99/25 16/100/25
f 27/101/26 28/102/26 31/103/26 30/104/26
f 28/105/27 29/106/27 32/107/27 31/108/27
f 16/109/28 30/110/28 33/111/28 17/112/28
f 30/113/29 31/114/29 34/115/29 33/116/29
f 31/117/30 32/118/30 35/119/30 34/120/30
f 17/121/31 33/122/31 36/123/31 3/124/31
f 33/125/32 34/126/32 37/127/32 36/128/32
f 34/129/33 35/130/33 38/131/33 37/132/33
f 3/133/34 36/134/34 39/135/34 1/136/34
f 36/137/35 37/138/35 40/139/35 39/140/35
f 37/141/36 38/142/36 41/143/36 40/144/36
f 1/145/37 39/146/37 42/147/37 20/148/37
f 39/149/38 40/150/38 43/151/38 42/152/38
f 40/153/39 41/154/39 44/155/39 43/156/39
f 20/157/40 42/158/40 45/159/40 19/160/40
f 42/161/41 43/162/41 46/163/41 45/164/41
f 43/165/42 44/166/42 47/167/42 46/168/42
f 19/169/43 45/170/43 48/171/43 18/172/43
f 45/173/44 46/174/44 49/175/44 48/176/44
f 46/177/45 47/178/45 50/179/45 49/180/45
f 18/181/46 48/182/46 21/183/46 5/184/46
f 48/185/47 49/186/47 23/187/47 21/188/47
f 49/189/48 50/190/48 25/191/48 23/192/48