# Made in Blockbench 4.9.4
mtllib opened_box.mtl

o cuboid
v -0.13144531250000002 1.1562236064189189 1.21875
v -0.13144531250000002 1.1562236064189189 -0.0625
v -0.13144531250000002 0.015625 1.21875
v -0.13144531250000002 0.015625 -0.0625
v -1.2435546875 1.1562236064189189 1.21875
v -1.2435546875 1.1562236064189189 -0.0625
v -1.2435546875 0.015625 1.21875
v -1.2435546875 0.015625 -0.0625
v 0.453125 1.359375 -0.0625
v 0.453125 1.359375 1.21875
v -1.828125 1.359375 1.21875
v -1.828125 1.359375 -0.0625
vt 0.234375 1
vt 0 1
vt 0 0.78125
vt 0.234375 0.78125
vt 0.234375 0.546875
vt 0.234375 0.765625
vt 0 0.765625
vt 0 0.546875
vt 0.4375 0.765625
vt 0.4375 1
vt 0.25 1
vt 0.25 0.765625
vt 0.4375 0.53125
vt 0.4375 0.75
vt 0.25 0.75
vt 0.25 0.53125
vt 0.640625 1
vt 0.453125 1
vt 0.453125 0.78125
vt 0.640625 0.78125
vt 0.6875 0.65625
vt 0.6875 0.765625
vt 0.453125 0.765625
vt 0.453125 0.65625
vt 0.6875 0.53125
vt 0.6875 0.640625
vt 0.453125 0.640625
vt 0.453125 0.53125
vn 1 0 0
vn -1 0 0
vn 0 -1 0
vn 0 0 1
vn 0 0 -1
vn 0.3282648806089717 -0.9445857124468788 0
vn -0.3282648806089718 -0.9445857124468788 0
usemtl m_e4a86d2c-2fdd-fffb-00cd-1fafbe769ee8
f 2/1/1 1/2/1 3/3/1 4/4/1
f 7/5/2 5/6/2 6/7/2 8/8/2
f 4/9/3 3/10/3 7/11/3 8/12/3
f 3/13/4 1/14/4 5/15/4 7/16/4
f 6/17/5 2/18/5 4/19/5 8/20/5
f 2/21/6 9/22/6 10/23/6 1/24/6
f 5/25/7 11/26/7 12/27/7 6/28/7