# Made in Blockbench 4.9.4
mtllib UniDoor.mtl

o Door_selection
v -2.421875 6.625 -0.9375
v -5.671875 6.625 -0.9375
v -2.421875 6.625 0.9375
v -5.671875 6.625 0.9375
v -2.421875 9.265625 0.9375
v -2.421875 9.265625 -0.9375
v -5.671875 9.265625 0.9375
v -5.671875 9.265625 -0.9375
vt 0.06640625 0.51953125
vt 0.26953125 0.51953125
vt 0.26953125 0.58203125
vt 0.06640625 0.58203125
vt 0.203125 0.76171875
vt 0 0.76171875
vt 0 0.7578125
vt 0.203125 0.7578125
vt 0.14453125 0.77734375
vt 0.125 0.77734375
vt 0.125 0.7734375
vt 0.14453125 0.7734375
vt 0.203125 0.79296875
vt 0 0.79296875
vt 0 0.7890625
vt 0.203125 0.7890625
vt 0.04296875 0.77734375
vt 0.0234375 0.77734375
vt 0.0234375 0.7734375
vt 0.04296875 0.7734375
vt 0.203125 1
vt 0 1
vt 0 0.98046875
vt 0.203125 0.98046875
vn 0 1 0
vn 0 0 1
vn 1 0 0
vn 0 0 -1
vn -1 0 0
vn 0 -1 0
usemtl m_99a9a0ba-7df6-72c6-9f71-77c9a45ad62c
f 7/1/1 5/2/1 6/3/1 8/4/1
f 5/5/2 7/6/2 4/7/2 3/8/2
f 6/9/3 5/10/3 3/11/3 1/12/3
f 8/13/4 6/14/4 1/15/4 2/16/4
f 7/17/5 8/18/5 2/19/5 4/20/5
f 3/21/6 4/22/6 2/23/6 1/24/6
o Door
v -4.986607142857143 2.9635416666666665 -0.453125
v -4.986607142857143 2.9635416666666665 -0.6004464285714286
v -4.986607142857143 2.7552083333333335 -0.453125
v -4.986607142857143 2.7552083333333335 -0.6004464285714286
v -5.232142857142857 2.9635416666666665 -0.453125
v -5.232142857142857 2.9635416666666665 -0.6004464285714286
v -5.232142857142857 2.7552083333333335 -0.453125
v -5.232142857142857 2.7552083333333335 -0.6004464285714286
v -4.9375 3.015625 -0.6004464285714286
v -4.9375 3.015625 -0.796875
v -4.9375 2.703125 -0.6004464285714286
v -4.9375 2.703125 -0.796875
v -5.28125 3.015625 -0.6004464285714286
v -5.28125 3.015625 -0.796875
v -5.28125 2.703125 -0.6004464285714286
v -5.28125 2.703125 -0.796875
v -2.421875 6.625 -0.46875
v -2.421875 0 -0.46875
v -5.671875 6.625 -0.46875
v -5.671875 0 -0.46875
v -2.421875 6.625 0.1875
v -2.421875 0 0.1875
v -5.671875 6.625 0.1875
v -5.671875 0 0.1875
vt 0.48828125 0.8671875
vt 0.48046875 0.8671875
vt 0.48046875 0.859375
vt 0.48828125 0.859375
vt 0.48828125 0.84765625
vt 0.48828125 0.85546875
vt 0.48046875 0.85546875
vt 0.48046875 0.84765625
vt 0.48046875 0.9375
vt 0.4921875 0.9375
vt 0.4921875 0.9453125
vt 0.48046875 0.9453125
vt 0.4921875 0.92578125
vt 0.4921875 0.93359375
vt 0.48046875 0.93359375
vt 0.48046875 0.92578125
vt 0.4921875 0.9140625
vt 0.4921875 0.921875
vt 0.48046875 0.921875
vt 0.48046875 0.9140625
vt 0.4921875 0.91015625
vt 0.48046875 0.91015625
vt 0.48046875 0.90234375
vt 0.4921875 0.90234375
vt 0.48828125 0.8984375
vt 0.48046875 0.8984375
vt 0.48046875 0.88671875
vt 0.48828125 0.88671875
vt 0.48828125 0.87109375
vt 0.48828125 0.8828125
vt 0.48046875 0.8828125
vt 0.48046875 0.87109375
vt 0.48046875 0.9609375
vt 0.49609375 0.9609375
vt 0.49609375 0.96875
vt 0.48046875 0.96875
vt 0.49609375 0.94921875
vt 0.49609375 0.95703125
vt 0.48046875 0.95703125
vt 0.48046875 0.94921875
vt 0.49609375 0.98828125
vt 0.49609375 1
vt 0.48046875 1
vt 0.48046875 0.98828125
vt 0.49609375 0.984375
vt 0.48046875 0.984375
vt 0.48046875 0.97265625
vt 0.49609375 0.97265625
vt 0.41015625 1
vt 0.20703125 1
vt 0.20703125 0.5859375
vt 0.41015625 0.5859375
vt 0.4765625 1
vt 0.4140625 1
vt 0.4140625 0.5859375
vt 0.4765625 0.5859375
vt 0.0625 0.16796875
vt 0.0625 0.58203125
vt 0 0.58203125
vt 0 0.16796875
vt 0.4765625 0.51953125
vt 0.4765625 0.58203125
vt 0.2734375 0.58203125
vt 0.2734375 0.51953125
vt 0 0.98046875
vt 0.203125 0.98046875
vt 0.203125 1
vt 0 1
vt 0.20703125 0.5859375
vt 0.20703125 1
vt 0.41015625 1
vt 0.41015625 0.5859375
vn 1 0 0
vn -1 0 0
vn 0 1 0
vn 0 -1 0
vn 0 0 1
vn 0 0 -1
vn 1 0 0
vn -1 0 0
vn 0 1 0
vn 0 -1 0
vn 0 0 1
vn 0 0 -1
vn 0 0 -1
vn 1 0 0
vn -1 0 0
vn 0 -1 0
vn 0 1 0
vn 0 0 1
usemtl m_99a9a0ba-7df6-72c6-9f71-77c9a45ad62c
f 10/25/7 9/26/7 11/27/7 12/28/7
f 15/29/8 13/30/8 14/31/8 16/32/8
f 13/33/9 9/34/9 10/35/9 14/36/9
f 12/37/10 11/38/10 15/39/10 16/40/10
f 11/41/11 9/42/11 13/43/11 15/44/11
f 14/45/12 10/46/12 12/47/12 16/48/12
f 18/49/13 17/50/13 19/51/13 20/52/13
f 23/53/14 21/54/14 22/55/14 24/56/14
f 21/57/15 17/58/15 18/59/15 22/60/15
f 20/61/16 19/62/16 23/63/16 24/64/16
f 19/65/17 17/66/17 21/67/17 23/68/17
f 22/69/18 18/70/18 20/71/18 24/72/18
f 27/73/19 25/74/19 26/75/19 28/76/19
f 25/77/20 29/78/20 30/79/20 26/80/20
f 32/81/21 31/82/21 27/83/21 28/84/21
f 26/85/22 30/86/22 32/87/22 28/88/22
f 31/89/23 29/90/23 25/91/23 27/92/23
f 30/93/24 29/94/24 31/95/24 32/96/24